<!DOCTYPE svg PUBLIC "-//W3C//DTD SVG 1.1//EN" "http://www.w3.org/Graphics/SVG/1.1/DTD/svg11.dtd">
<!-- Uploaded to: SVG Repo, www.svgrepo.com, Transformed by: SVG Repo Mixer Tools -->
<svg fill="#7b110e" height="800px" width="800px" version="1.1" id="Layer_1" xmlns="http://www.w3.org/2000/svg" xmlns:xlink="http://www.w3.org/1999/xlink" viewBox="0 0 511.999 511.999" xml:space="preserve" stroke="#7b110e">
<g id="SVGRepo_bgCarrier" stroke-width="0"/>
<g id="SVGRepo_tracerCarrier" stroke-linecap="round" stroke-linejoin="round"/>
<g id="SVGRepo_iconCarrier"> <g> <g> <path d="M383.375,141.841c-2.034-4.056-4.127-7.972-6.265-11.771H164.581c-2.137,3.799-4.229,7.714-6.264,11.77 c-2.756,5.495-5.382,11.176-7.886,17.014l-39.534,0.001c-52.062,0-94.419,42.355-94.419,94.418 c0,52.063,42.355,94.42,94.419,94.42h4.824v164.307h310.25V345.932C425.97,269.092,410.842,196.61,383.375,141.841z M116.428,317.283h-5.532c-35.294,0-64.009-28.714-64.009-64.011c0-35.293,28.713-64.008,64.009-64.008h28.117 C126.448,227.715,118.705,271.38,116.428,317.283z"/> </g> </g> <g> <g> <path d="M307.894,59.834c2.903-5.628,4.552-12.003,4.552-18.759C312.448,18.427,294.021,0,271.371,0 c-22.649,0-41.075,18.427-41.075,41.075c0,6.602,1.574,12.839,4.354,18.371c-17.85,7.78-34.637,21.347-49.748,40.214h171.886 C341.919,81.095,325.426,67.671,307.894,59.834z"/> </g> </g> <g> <g> <path d="M411.47,130.07c11.916,24.141,21.626,51.303,28.929,80.534l55.123-80.534H411.47z"/> </g> </g> </g>
</svg>